# MagicaVoxel @ Ephtracy

# material
mtllib towerbuilderblock.mtl
usemtl palette

# normals
vn -1 0 0
vn 1 0 0
vn 0 0 1
vn 0 0 -1
vn 0 -1 0
vn 0 1 0

# texcoords
vt 0.00976562 0.5
vt 0.306641 0.5
vt 0.970703 0.5
vt 0.986328 0.5

# verts
v -20 0 21
v -20 0 19
v -20 0 -20
v -20 4 21
v -20 4 20
v -20 4 19
v -20 5 20
v -20 5 19
v -20 8 20
v -20 8 19
v -20 14 20
v -20 14 19
v -20 20 20
v -20 20 19
v -20 21 20
v -20 21 19
v -20 26 20
v -20 26 19
v -20 27 21
v -20 27 20
v -20 27 19
v -20 30 21
v -20 30 20
v -20 30 19
v -20 31 20
v -20 31 19
v -20 35 20
v -20 35 19
v -20 36 21
v -20 36 20
v -20 36 19
v -20 40 21
v -20 40 19
v -20 40 -20
v -18 21 21
v -18 21 20
v -18 26 21
v -18 26 20
v -11 5 21
v -11 5 20
v -11 8 21
v -11 8 20
v -4 8 20
v -4 8 19
v -4 9 20
v -4 9 19
v -4 13 20
v -4 13 19
v -4 14 21
v -4 14 20
v -4 14 19
v -4 19 21
v -4 19 20
v -4 19 19
v -4 20 20
v -4 20 19
v -4 25 20
v -4 25 19
v -4 26 20
v -4 26 19
v -4 30 20
v -4 30 19
v -4 31 20
v -4 31 19
v -4 35 20
v -4 35 19
v -2 14 21
v -2 14 20
v -2 19 21
v -2 19 20
v -1 5 21
v -1 5 20
v -1 8 21
v -1 8 20
v 0 31 21
v 0 31 20
v 0 35 21
v 0 35 20
v 1 9 21
v 1 9 20
v 1 13 21
v 1 13 20
v 4 0 21
v 4 0 20
v 4 4 21
v 4 4 20
v 9 36 21
v 9 36 20
v 9 40 21
v 9 40 20
v 16 8 20
v 16 8 19
v 16 9 20
v 16 9 19
v 16 12 20
v 16 12 19
v 16 13 21
v 16 13 20
v 16 13 19
v 16 16 21
v 16 16 20
v 16 16 19
v 16 17 20
v 16 17 19
v 16 20 20
v 16 20 19
v 16 21 20
v 16 21 19
v 16 25 20
v 16 25 19
v 16 26 21
v 16 26 20
v 16 26 19
v 16 30 21
v 16 30 20
v 16 30 19
v 16 31 20
v 16 31 19
v 16 35 20
v 16 35 19
v 19 21 21
v 19 21 20
v 19 25 21
v 19 25 20
v -17 8 20
v -17 8 19
v -17 9 20
v -17 9 19
v -17 13 20
v -17 13 19
v -17 21 21
v -17 21 20
v -17 21 19
v -17 26 21
v -17 26 20
v -17 26 19
v -17 27 21
v -17 27 20
v -17 27 19
v -17 30 21
v -17 30 20
v -17 30 19
v -17 31 20
v -17 31 19
v -17 35 20
v -17 35 19
v -16 36 21
v -16 36 20
v -16 40 21
v -16 40 20
v -10 0 21
v -10 0 20
v -10 4 21
v -10 4 20
v -3 14 21
v -3 14 20
v -3 19 21
v -3 19 20
v -2 5 21
v -2 5 20
v -2 8 21
v -2 8 20
v 3 8 20
v 3 8 19
v 3 9 21
v 3 9 20
v 3 9 19
v 3 13 21
v 3 13 20
v 3 13 19
v 3 14 21
v 3 14 20
v 3 14 19
v 3 19 21
v 3 19 20
v 3 19 19
v 3 20 20
v 3 20 19
v 3 25 20
v 3 25 19
v 3 31 21
v 3 31 20
v 3 31 19
v 3 35 21
v 3 35 20
v 3 35 19
v 8 5 21
v 8 5 20
v 8 8 21
v 8 8 20
v 16 0 21
v 16 0 20
v 16 4 21
v 16 4 20
v 17 13 21
v 17 13 20
v 17 16 21
v 17 16 20
v 18 36 21
v 18 36 20
v 18 40 21
v 18 40 20
v 20 0 20
v 20 0 19
v 20 0 -20
v 20 4 20
v 20 4 19
v 20 9 20
v 20 9 19
v 20 12 20
v 20 12 19
v 20 13 20
v 20 13 19
v 20 16 20
v 20 16 19
v 20 21 21
v 20 21 20
v 20 21 19
v 20 25 21
v 20 25 20
v 20 25 19
v 20 26 21
v 20 26 20
v 20 26 19
v 20 30 21
v 20 30 20
v 20 30 19
v 20 31 20
v 20 31 19
v 20 35 20
v 20 35 19
v 20 36 20
v 20 36 19
v 20 40 20
v 20 40 19
v 20 40 -20
v -20 0 21
v -20 4 21
v -20 27 21
v -20 30 21
v -20 36 21
v -20 40 21
v -18 21 21
v -18 26 21
v -17 21 21
v -17 26 21
v -17 27 21
v -17 30 21
v -16 36 21
v -16 40 21
v -11 5 21
v -11 8 21
v -10 0 21
v -10 4 21
v -4 14 21
v -4 19 21
v -3 14 21
v -3 19 21
v -2 5 21
v -2 8 21
v -2 14 21
v -2 19 21
v -1 5 21
v -1 8 21
v 0 31 21
v 0 35 21
v 1 9 21
v 1 13 21
v 3 9 21
v 3 13 21
v 3 14 21
v 3 19 21
v 3 31 21
v 3 35 21
v 4 0 21
v 4 4 21
v 8 5 21
v 8 8 21
v 9 36 21
v 9 40 21
v 16 0 21
v 16 4 21
v 16 13 21
v 16 16 21
v 16 26 21
v 16 30 21
v 17 13 21
v 17 16 21
v 18 36 21
v 18 40 21
v 19 21 21
v 19 25 21
v 20 21 21
v 20 25 21
v 20 26 21
v 20 30 21
v -20 4 20
v -20 5 20
v -20 8 20
v -20 14 20
v -20 20 20
v -20 21 20
v -20 26 20
v -20 27 20
v -20 30 20
v -20 31 20
v -20 35 20
v -20 36 20
v -19 9 20
v -19 13 20
v -19 21 20
v -19 26 20
v -18 14 20
v -18 20 20
v -18 21 20
v -18 26 20
v -17 8 20
v -17 9 20
v -17 13 20
v -17 21 20
v -17 26 20
v -17 27 20
v -17 30 20
v -17 31 20
v -17 35 20
v -16 36 20
v -16 40 20
v -15 36 20
v -15 40 20
v -12 5 20
v -12 8 20
v -11 5 20
v -11 8 20
v -10 0 20
v -10 4 20
v -9 0 20
v -9 4 20
v -4 8 20
v -4 9 20
v -4 13 20
v -4 14 20
v -4 19 20
v -4 20 20
v -4 25 20
v -4 26 20
v -4 30 20
v -4 31 20
v -4 35 20
v -3 14 20
v -3 19 20
v -3 36 20
v -3 40 20
v -2 5 20
v -2 8 20
v -2 14 20
v -2 19 20
v -2 36 20
v -2 40 20
v -1 5 20
v -1 8 20
v -1 31 20
v -1 35 20
v 0 9 20
v 0 13 20
v 0 31 20
v 0 35 20
v 1 9 20
v 1 13 20
v 1 20 20
v 1 25 20
v 2 20 20
v 2 25 20
v 2 26 20
v 2 30 20
v 3 0 20
v 3 4 20
v 3 8 20
v 3 9 20
v 3 13 20
v 3 14 20
v 3 19 20
v 3 20 20
v 3 25 20
v 3 31 20
v 3 35 20
v 4 0 20
v 4 4 20
v 8 5 20
v 8 8 20
v 8 36 20
v 8 40 20
v 9 5 20
v 9 8 20
v 9 36 20
v 9 40 20
v 16 0 20
v 16 4 20
v 16 8 20
v 16 9 20
v 16 12 20
v 16 13 20
v 16 16 20
v 16 17 20
v 16 20 20
v 16 21 20
v 16 25 20
v 16 26 20
v 16 30 20
v 16 31 20
v 16 35 20
v 17 0 20
v 17 4 20
v 17 13 20
v 17 16 20
v 17 31 20
v 17 35 20
v 18 13 20
v 18 16 20
v 18 21 20
v 18 25 20
v 18 31 20
v 18 35 20
v 18 36 20
v 18 40 20
v 19 5 20
v 19 8 20
v 19 17 20
v 19 20 20
v 19 21 20
v 19 25 20
v 19 36 20
v 19 40 20
v 20 0 20
v 20 4 20
v 20 9 20
v 20 12 20
v 20 13 20
v 20 16 20
v 20 21 20
v 20 25 20
v 20 26 20
v 20 30 20
v 20 31 20
v 20 35 20
v 20 36 20
v 20 40 20
v -17 8 19
v -17 9 19
v -17 13 19
v -17 21 19
v -17 26 19
v -17 27 19
v -17 30 19
v -17 31 19
v -17 35 19
v -12 8 19
v -11 8 19
v -4 8 19
v -4 9 19
v -4 13 19
v -4 14 19
v -4 19 19
v -4 20 19
v -4 25 19
v -4 26 19
v -4 30 19
v -4 31 19
v -4 35 19
v 3 8 19
v 3 9 19
v 3 13 19
v 3 14 19
v 3 19 19
v 3 20 19
v 3 25 19
v 3 31 19
v 3 35 19
v 8 8 19
v 9 8 19
v 16 8 19
v 16 9 19
v 16 12 19
v 16 13 19
v 16 16 19
v 16 17 19
v 16 20 19
v 16 21 19
v 16 25 19
v 16 26 19
v 16 30 19
v 16 31 19
v 16 35 19
v -20 0 -20
v -20 40 -20
v 20 0 -20
v 20 40 -20
v -20 0 21
v -10 0 21
v 4 0 21
v 16 0 21
v -10 0 20
v -9 0 20
v 3 0 20
v 4 0 20
v 16 0 20
v 17 0 20
v 20 0 20
v -20 0 19
v -10 0 19
v -9 0 19
v 3 0 19
v 4 0 19
v 16 0 19
v 17 0 19
v 20 0 19
v -20 0 -20
v 20 0 -20
v -11 5 21
v -2 5 21
v -1 5 21
v 8 5 21
v -11 5 20
v -2 5 20
v -1 5 20
v 8 5 20
v 1 9 21
v 3 9 21
v 1 9 20
v 3 9 20
v 16 13 21
v 17 13 21
v 16 13 20
v 17 13 20
v -4 14 21
v -3 14 21
v -2 14 21
v 3 14 21
v -4 14 20
v -3 14 20
v -2 14 20
v 3 14 20
v -18 21 21
v -17 21 21
v 19 21 21
v 20 21 21
v -18 21 20
v -17 21 20
v 19 21 20
v 20 21 20
v 16 26 21
v 20 26 21
v 16 26 20
v 20 26 20
v -20 27 21
v -17 27 21
v -20 27 20
v -17 27 20
v 0 31 21
v 3 31 21
v 0 31 20
v 3 31 20
v -17 35 20
v -4 35 20
v 3 35 20
v 16 35 20
v -17 35 19
v -4 35 19
v 3 35 19
v 16 35 19
v -20 36 21
v -16 36 21
v 9 36 21
v 18 36 21
v -20 36 20
v -16 36 20
v 9 36 20
v 18 36 20
v -20 4 21
v -10 4 21
v 4 4 21
v 16 4 21
v -20 4 20
v -10 4 20
v 4 4 20
v 16 4 20
v -11 8 21
v -2 8 21
v -1 8 21
v 8 8 21
v -17 8 20
v -12 8 20
v -11 8 20
v -4 8 20
v -2 8 20
v -1 8 20
v 3 8 20
v 8 8 20
v 9 8 20
v 16 8 20
v -17 8 19
v -12 8 19
v -11 8 19
v -4 8 19
v 3 8 19
v 8 8 19
v 9 8 19
v 16 8 19
v 1 13 21
v 3 13 21
v 1 13 20
v 3 13 20
v 16 16 21
v 17 16 21
v 16 16 20
v 17 16 20
v -4 19 21
v -3 19 21
v -2 19 21
v 3 19 21
v -4 19 20
v -3 19 20
v -2 19 20
v 3 19 20
v 19 25 21
v 20 25 21
v 19 25 20
v 20 25 20
v -18 26 21
v -17 26 21
v -18 26 20
v -17 26 20
v -20 30 21
v -17 30 21
v 16 30 21
v 20 30 21
v -20 30 20
v -17 30 20
v 16 30 20
v 20 30 20
v 0 35 21
v 3 35 21
v 0 35 20
v 3 35 20
v -20 40 21
v -16 40 21
v 9 40 21
v 18 40 21
v -16 40 20
v -15 40 20
v -3 40 20
v -2 40 20
v 8 40 20
v 9 40 20
v 18 40 20
v 19 40 20
v 20 40 20
v -20 40 19
v -16 40 19
v -15 40 19
v -3 40 19
v -2 40 19
v 8 40 19
v 9 40 19
v 18 40 19
v 19 40 19
v 20 40 19
v -20 40 -20
v 20 40 -20

# faces
f 4/3/1 2/3/1 1/3/1
f 5/3/1 2/3/1 4/3/1
f 6/4/1 3/4/1 2/4/1
f 6/3/1 2/3/1 5/3/1
f 7/4/1 6/4/1 5/4/1
f 8/4/1 3/4/1 6/4/1
f 8/4/1 6/4/1 7/4/1
f 9/3/1 8/3/1 7/3/1
f 10/4/1 3/4/1 8/4/1
f 10/3/1 8/3/1 9/3/1
f 11/4/1 10/4/1 9/4/1
f 12/4/1 3/4/1 10/4/1
f 12/4/1 10/4/1 11/4/1
f 13/3/1 12/3/1 11/3/1
f 14/4/1 3/4/1 12/4/1
f 14/3/1 12/3/1 13/3/1
f 15/4/1 14/4/1 13/4/1
f 16/4/1 3/4/1 14/4/1
f 16/4/1 14/4/1 15/4/1
f 17/3/1 16/3/1 15/3/1
f 18/4/1 3/4/1 16/4/1
f 18/3/1 16/3/1 17/3/1
f 20/4/1 18/4/1 17/4/1
f 21/4/1 3/4/1 18/4/1
f 21/4/1 18/4/1 20/4/1
f 22/3/1 20/3/1 19/3/1
f 22/3/1 21/3/1 20/3/1
f 23/3/1 21/3/1 22/3/1
f 24/4/1 3/4/1 21/4/1
f 24/3/1 21/3/1 23/3/1
f 25/4/1 24/4/1 23/4/1
f 26/4/1 3/4/1 24/4/1
f 26/4/1 24/4/1 25/4/1
f 27/3/1 26/3/1 25/3/1
f 28/4/1 3/4/1 26/4/1
f 28/3/1 26/3/1 27/3/1
f 30/4/1 28/4/1 27/4/1
f 31/4/1 3/4/1 28/4/1
f 31/4/1 28/4/1 30/4/1
f 32/3/1 30/3/1 29/3/1
f 32/3/1 31/3/1 30/3/1
f 33/4/1 3/4/1 31/4/1
f 33/3/1 31/3/1 32/3/1
f 34/4/1 3/4/1 33/4/1
f 37/3/1 36/3/1 35/3/1
f 38/3/1 36/3/1 37/3/1
f 41/3/1 40/3/1 39/3/1
f 42/3/1 40/3/1 41/3/1
f 45/4/1 44/4/1 43/4/1
f 46/4/1 44/4/1 45/4/1
f 47/3/1 46/3/1 45/3/1
f 48/3/1 46/3/1 47/3/1
f 50/4/1 48/4/1 47/4/1
f 51/4/1 48/4/1 50/4/1
f 52/3/1 50/3/1 49/3/1
f 52/3/1 51/3/1 50/3/1
f 53/3/1 51/3/1 52/3/1
f 54/3/1 51/3/1 53/3/1
f 55/4/1 54/4/1 53/4/1
f 56/4/1 54/4/1 55/4/1
f 57/3/1 56/3/1 55/3/1
f 58/3/1 56/3/1 57/3/1
f 59/4/1 58/4/1 57/4/1
f 60/4/1 58/4/1 59/4/1
f 61/3/1 60/3/1 59/3/1
f 62/3/1 60/3/1 61/3/1
f 63/4/1 62/4/1 61/4/1
f 64/4/1 62/4/1 63/4/1
f 65/3/1 64/3/1 63/3/1
f 66/3/1 64/3/1 65/3/1
f 69/3/1 68/3/1 67/3/1
f 70/3/1 68/3/1 69/3/1
f 73/3/1 72/3/1 71/3/1
f 74/3/1 72/3/1 73/3/1
f 77/3/1 76/3/1 75/3/1
f 78/3/1 76/3/1 77/3/1
f 81/3/1 80/3/1 79/3/1
f 82/3/1 80/3/1 81/3/1
f 85/3/1 84/3/1 83/3/1
f 86/3/1 84/3/1 85/3/1
f 89/3/1 88/3/1 87/3/1
f 90/3/1 88/3/1 89/3/1
f 93/4/1 92/4/1 91/4/1
f 94/4/1 92/4/1 93/4/1
f 95/3/1 94/3/1 93/3/1
f 96/3/1 94/3/1 95/3/1
f 98/4/1 96/4/1 95/4/1
f 99/4/1 96/4/1 98/4/1
f 100/3/1 98/3/1 97/3/1
f 100/3/1 99/3/1 98/3/1
f 101/3/1 99/3/1 100/3/1
f 102/3/1 99/3/1 101/3/1
f 103/4/1 102/4/1 101/4/1
f 104/4/1 102/4/1 103/4/1
f 105/3/1 104/3/1 103/3/1
f 106/3/1 104/3/1 105/3/1
f 107/4/1 106/4/1 105/4/1
f 108/4/1 106/4/1 107/4/1
f 109/3/1 108/3/1 107/3/1
f 110/3/1 108/3/1 109/3/1
f 112/4/1 110/4/1 109/4/1
f 113/4/1 110/4/1 112/4/1
f 114/3/1 112/3/1 111/3/1
f 114/3/1 113/3/1 112/3/1
f 115/3/1 113/3/1 114/3/1
f 116/3/1 113/3/1 115/3/1
f 117/4/1 116/4/1 115/4/1
f 118/4/1 116/4/1 117/4/1
f 119/3/1 118/3/1 117/3/1
f 120/3/1 118/3/1 119/3/1
f 123/3/1 122/3/1 121/3/1
f 124/3/1 122/3/1 123/3/1
f 125/4/2 126/4/2 127/4/2
f 127/4/2 126/4/2 128/4/2
f 127/3/2 128/3/2 129/3/2
f 129/3/2 128/3/2 130/3/2
f 129/4/2 130/4/2 132/4/2
f 132/4/2 130/4/2 133/4/2
f 131/3/2 132/3/2 134/3/2
f 132/3/2 133/3/2 134/3/2
f 134/3/2 133/3/2 135/3/2
f 135/3/2 133/3/2 136/3/2
f 135/4/2 136/4/2 138/4/2
f 138/4/2 136/4/2 139/4/2
f 137/3/2 138/3/2 140/3/2
f 138/3/2 139/3/2 140/3/2
f 140/3/2 139/3/2 141/3/2
f 141/3/2 139/3/2 142/3/2
f 141/4/2 142/4/2 143/4/2
f 143/4/2 142/4/2 144/4/2
f 143/3/2 144/3/2 145/3/2
f 145/3/2 144/3/2 146/3/2
f 147/3/2 148/3/2 149/3/2
f 149/3/2 148/3/2 150/3/2
f 151/3/2 152/3/2 153/3/2
f 153/3/2 152/3/2 154/3/2
f 155/3/2 156/3/2 157/3/2
f 157/3/2 156/3/2 158/3/2
f 159/3/2 160/3/2 161/3/2
f 161/3/2 160/3/2 162/3/2
f 163/4/2 164/4/2 166/4/2
f 166/4/2 164/4/2 167/4/2
f 165/3/2 166/3/2 168/3/2
f 166/3/2 167/3/2 168/3/2
f 168/3/2 167/3/2 169/3/2
f 169/3/2 167/3/2 170/3/2
f 169/4/2 170/4/2 172/4/2
f 172/4/2 170/4/2 173/4/2
f 171/3/2 172/3/2 174/3/2
f 172/3/2 173/3/2 174/3/2
f 174/3/2 173/3/2 175/3/2
f 175/3/2 173/3/2 176/3/2
f 175/4/2 176/4/2 177/4/2
f 177/4/2 176/4/2 178/4/2
f 177/3/2 178/3/2 179/3/2
f 179/3/2 178/3/2 180/3/2
f 179/4/2 180/4/2 182/4/2
f 182/4/2 180/4/2 183/4/2
f 181/3/2 182/3/2 184/3/2
f 182/3/2 183/3/2 184/3/2
f 184/3/2 183/3/2 185/3/2
f 185/3/2 183/3/2 186/3/2
f 187/3/2 188/3/2 189/3/2
f 189/3/2 188/3/2 190/3/2
f 191/3/2 192/3/2 193/3/2
f 193/3/2 192/3/2 194/3/2
f 195/3/2 196/3/2 197/3/2
f 197/3/2 196/3/2 198/3/2
f 199/3/2 200/3/2 201/3/2
f 201/3/2 200/3/2 202/3/2
f 203/3/2 204/3/2 206/3/2
f 204/4/2 205/4/2 207/4/2
f 206/3/2 204/3/2 207/3/2
f 206/4/2 207/4/2 208/4/2
f 207/4/2 205/4/2 209/4/2
f 208/4/2 207/4/2 209/4/2
f 208/3/2 209/3/2 210/3/2
f 209/4/2 205/4/2 211/4/2
f 210/3/2 209/3/2 211/3/2
f 210/4/2 211/4/2 212/4/2
f 211/4/2 205/4/2 213/4/2
f 212/4/2 211/4/2 213/4/2
f 212/3/2 213/3/2 214/3/2
f 213/4/2 205/4/2 215/4/2
f 214/3/2 213/3/2 215/3/2
f 214/4/2 215/4/2 217/4/2
f 215/4/2 205/4/2 218/4/2
f 217/4/2 215/4/2 218/4/2
f 216/3/2 217/3/2 219/3/2
f 217/3/2 218/3/2 219/3/2
f 219/3/2 218/3/2 220/3/2
f 218/4/2 205/4/2 221/4/2
f 220/3/2 218/3/2 221/3/2
f 220/4/2 221/4/2 223/4/2
f 221/4/2 205/4/2 224/4/2
f 223/4/2 221/4/2 224/4/2
f 222/3/2 223/3/2 225/3/2
f 223/3/2 224/3/2 225/3/2
f 225/3/2 224/3/2 226/3/2
f 224/4/2 205/4/2 227/4/2
f 226/3/2 224/3/2 227/3/2
f 226/4/2 227/4/2 228/4/2
f 227/4/2 205/4/2 229/4/2
f 228/4/2 227/4/2 229/4/2
f 228/3/2 229/3/2 230/3/2
f 229/4/2 205/4/2 231/4/2
f 230/3/2 229/3/2 231/3/2
f 230/4/2 231/4/2 232/4/2
f 231/4/2 205/4/2 233/4/2
f 232/4/2 231/4/2 233/4/2
f 232/3/2 233/3/2 234/3/2
f 233/4/2 205/4/2 235/4/2
f 234/3/2 233/3/2 235/3/2
f 235/4/2 205/4/2 236/4/2
f 245/3/3 244/3/3 243/3/3
f 246/3/3 244/3/3 245/3/3
f 247/3/3 240/3/3 239/3/3
f 248/3/3 240/3/3 247/3/3
f 249/3/3 242/3/3 241/3/3
f 250/3/3 242/3/3 249/3/3
f 253/3/3 238/3/3 237/3/3
f 254/3/3 238/3/3 253/3/3
f 257/3/3 256/3/3 255/3/3
f 258/3/3 256/3/3 257/3/3
f 259/3/3 252/3/3 251/3/3
f 260/3/3 252/3/3 259/3/3
f 269/3/3 268/3/3 267/3/3
f 270/3/3 268/3/3 269/3/3
f 271/3/3 262/3/3 261/3/3
f 272/3/3 262/3/3 271/3/3
f 273/3/3 266/3/3 265/3/3
f 274/3/3 266/3/3 273/3/3
f 277/3/3 264/3/3 263/3/3
f 278/3/3 264/3/3 277/3/3
f 281/3/3 276/3/3 275/3/3
f 282/3/3 276/3/3 281/3/3
f 287/3/3 284/3/3 283/3/3
f 288/3/3 284/3/3 287/3/3
f 289/3/3 280/3/3 279/3/3
f 290/3/3 280/3/3 289/3/3
f 293/3/3 292/3/3 291/3/3
f 294/3/3 292/3/3 293/3/3
f 295/3/3 286/3/3 285/3/3
f 296/3/3 286/3/3 295/3/3
f 309/4/3 300/4/3 299/4/3
f 310/4/3 300/4/3 309/4/3
f 311/4/3 302/4/3 301/4/3
f 311/3/3 303/3/3 302/3/3
f 312/4/3 304/4/3 303/4/3
f 312/3/3 303/3/3 311/3/3
f 313/3/3 301/3/3 300/3/3
f 313/4/3 300/4/3 310/4/3
f 314/4/3 312/4/3 311/4/3
f 314/3/3 301/3/3 313/3/3
f 314/4/3 311/4/3 301/4/3
f 315/4/3 312/4/3 314/4/3
f 316/4/3 304/4/3 312/4/3
f 316/4/3 312/4/3 315/4/3
f 317/3/3 299/3/3 298/3/3
f 317/4/3 309/4/3 299/4/3
f 318/3/3 310/3/3 309/3/3
f 318/4/3 309/4/3 317/4/3
f 319/4/3 315/4/3 314/4/3
f 319/3/3 310/3/3 318/3/3
f 319/4/3 313/4/3 310/4/3
f 319/4/3 314/4/3 313/4/3
f 320/4/3 315/4/3 319/4/3
f 321/4/3 304/4/3 316/4/3
f 322/4/3 304/4/3 321/4/3
f 323/4/3 306/4/3 305/4/3
f 324/3/3 307/3/3 306/3/3
f 324/4/3 306/4/3 323/4/3
f 325/4/3 308/4/3 307/4/3
f 325/3/3 307/3/3 324/3/3
f 326/4/3 308/4/3 325/4/3
f 328/4/3 326/4/3 325/4/3
f 328/4/3 327/4/3 326/4/3
f 329/4/3 327/4/3 328/4/3
f 330/4/3 298/4/3 297/4/3
f 330/3/3 317/3/3 298/3/3
f 331/3/3 317/3/3 330/3/3
f 332/4/3 330/4/3 297/4/3
f 332/4/3 331/4/3 330/4/3
f 333/4/3 331/4/3 332/4/3
f 335/4/3 332/4/3 297/4/3
f 336/4/3 335/4/3 334/4/3
f 337/4/3 332/4/3 335/4/3
f 337/4/3 335/4/3 336/4/3
f 348/4/3 328/4/3 325/4/3
f 349/4/3 341/4/3 340/4/3
f 350/4/3 343/4/3 342/4/3
f 351/3/3 329/3/3 328/3/3
f 351/4/3 328/4/3 348/4/3
f 352/3/3 329/3/3 351/3/3
f 353/4/3 332/4/3 337/4/3
f 354/4/3 339/4/3 338/4/3
f 355/4/3 350/4/3 349/4/3
f 355/4/3 349/4/3 340/4/3
f 356/4/3 343/4/3 350/4/3
f 356/4/3 350/4/3 355/4/3
f 357/4/3 351/4/3 348/4/3
f 357/4/3 352/4/3 351/4/3
f 358/4/3 352/4/3 357/4/3
f 359/4/3 354/4/3 353/4/3
f 359/4/3 353/4/3 337/4/3
f 360/4/3 339/4/3 354/4/3
f 360/4/3 354/4/3 359/4/3
f 361/4/3 347/4/3 346/4/3
f 361/3/3 348/3/3 347/3/3
f 362/4/3 357/4/3 348/4/3
f 362/3/3 348/3/3 361/3/3
f 363/4/3 339/4/3 360/4/3
f 363/3/3 340/3/3 339/3/3
f 364/4/3 355/4/3 340/4/3
f 364/3/3 340/3/3 363/3/3
f 365/4/3 362/4/3 361/4/3
f 365/4/3 361/4/3 346/4/3
f 366/4/3 357/4/3 362/4/3
f 366/4/3 362/4/3 365/4/3
f 367/4/3 363/4/3 360/4/3
f 367/4/3 364/4/3 363/4/3
f 368/4/3 355/4/3 364/4/3
f 368/4/3 364/4/3 367/4/3
f 369/3/3 344/3/3 343/3/3
f 369/4/3 343/4/3 356/4/3
f 370/4/3 345/4/3 344/4/3
f 370/3/3 344/3/3 369/3/3
f 371/4/3 369/4/3 356/4/3
f 371/4/3 370/4/3 369/4/3
f 372/4/3 345/4/3 370/4/3
f 372/4/3 370/4/3 371/4/3
f 373/3/3 346/3/3 345/3/3
f 373/4/3 345/4/3 372/4/3
f 374/4/3 365/4/3 346/4/3
f 374/3/3 346/3/3 373/3/3
f 375/3/3 337/3/3 336/3/3
f 376/4/3 359/4/3 337/4/3
f 376/3/3 337/3/3 375/3/3
f 377/4/3 367/4/3 360/4/3
f 378/4/3 367/4/3 377/4/3
f 379/4/3 355/4/3 368/4/3
f 380/4/3 355/4/3 379/4/3
f 381/4/3 371/4/3 356/4/3
f 382/3/3 372/3/3 371/3/3
f 382/4/3 371/4/3 381/4/3
f 383/4/3 373/4/3 372/4/3
f 383/3/3 372/3/3 382/3/3
f 383/4/3 374/4/3 373/4/3
f 384/4/3 365/4/3 374/4/3
f 384/4/3 374/4/3 383/4/3
f 385/4/3 357/4/3 366/4/3
f 386/4/3 376/4/3 375/4/3
f 387/4/3 359/4/3 376/4/3
f 387/4/3 376/4/3 386/4/3
f 388/4/3 359/4/3 387/4/3
f 390/4/3 357/4/3 385/4/3
f 390/3/3 358/3/3 357/3/3
f 391/3/3 358/3/3 390/3/3
f 392/4/3 389/4/3 388/4/3
f 392/4/3 388/4/3 387/4/3
f 393/4/3 389/4/3 392/4/3
f 394/4/3 391/4/3 390/4/3
f 394/4/3 390/4/3 385/4/3
f 395/4/3 391/4/3 394/4/3
f 397/4/3 392/4/3 387/4/3
f 398/3/3 393/3/3 392/3/3
f 410/4/3 394/4/3 385/4/3
f 411/4/3 397/4/3 396/4/3
f 412/4/3 392/4/3 397/4/3
f 412/4/3 397/4/3 411/4/3
f 413/4/3 401/4/3 400/4/3
f 414/4/3 403/4/3 402/4/3
f 415/3/3 410/3/3 409/3/3
f 415/4/3 409/4/3 408/4/3
f 416/4/3 394/4/3 410/4/3
f 416/3/3 410/3/3 415/3/3
f 417/4/3 414/4/3 413/4/3
f 417/4/3 413/4/3 400/4/3
f 418/4/3 403/4/3 414/4/3
f 418/4/3 414/4/3 417/4/3
f 419/4/3 405/4/3 404/4/3
f 419/3/3 406/3/3 405/3/3
f 420/4/3 407/4/3 406/4/3
f 420/3/3 406/3/3 419/3/3
f 421/4/3 416/4/3 415/4/3
f 421/4/3 415/4/3 408/4/3
f 422/4/3 394/4/3 416/4/3
f 422/4/3 416/4/3 421/4/3
f 423/4/3 394/4/3 422/4/3
f 425/3/3 398/3/3 392/3/3
f 425/4/3 392/4/3 412/4/3
f 426/4/3 399/4/3 398/4/3
f 426/3/3 398/3/3 425/3/3
f 427/3/3 404/3/3 403/3/3
f 427/4/3 403/4/3 418/4/3
f 428/4/3 419/4/3 404/4/3
f 428/3/3 404/3/3 427/3/3
f 428/4/3 420/4/3 419/4/3
f 429/4/3 420/4/3 428/4/3
f 430/4/3 407/4/3 420/4/3
f 430/4/3 420/4/3 429/4/3
f 431/4/3 424/4/3 423/4/3
f 431/4/3 423/4/3 422/4/3
f 432/4/3 424/4/3 431/4/3
f 433/3/3 412/3/3 411/3/3
f 434/4/3 425/4/3 412/4/3
f 434/3/3 412/3/3 433/3/3
f 434/4/3 426/4/3 425/4/3
f 435/3/3 400/3/3 399/3/3
f 435/4/3 426/4/3 434/4/3
f 435/4/3 399/4/3 426/4/3
f 436/4/3 417/4/3 400/4/3
f 436/3/3 400/3/3 435/3/3
f 437/3/3 418/3/3 417/3/3
f 437/4/3 417/4/3 436/4/3
f 438/4/3 429/4/3 428/4/3
f 438/3/3 418/3/3 437/3/3
f 438/4/3 428/4/3 427/4/3
f 438/4/3 427/4/3 418/4/3
f 439/4/3 429/4/3 438/4/3
f 440/4/3 407/4/3 430/4/3
f 441/4/3 407/4/3 440/4/3
f 442/4/3 421/4/3 408/4/3
f 443/3/3 422/3/3 421/3/3
f 443/4/3 421/4/3 442/4/3
f 444/4/3 431/4/3 422/4/3
f 444/3/3 422/3/3 443/3/3
f 445/3/3 432/3/3 431/3/3
f 445/4/3 431/4/3 444/4/3
f 446/3/3 432/3/3 445/3/3
f 456/1/3 448/1/3 447/1/3
f 456/1/3 455/1/3 454/1/3
f 456/1/3 454/1/3 453/1/3
f 456/1/3 453/1/3 452/1/3
f 456/1/3 452/1/3 451/1/3
f 456/1/3 451/1/3 450/1/3
f 456/1/3 450/1/3 449/1/3
f 456/1/3 449/1/3 448/1/3
f 457/1/3 455/1/3 456/1/3
f 458/1/3 455/1/3 457/1/3
f 459/1/3 455/1/3 458/1/3
f 460/1/3 455/1/3 459/1/3
f 461/1/3 455/1/3 460/1/3
f 462/1/3 455/1/3 461/1/3
f 463/1/3 455/1/3 462/1/3
f 464/1/3 455/1/3 463/1/3
f 465/1/3 455/1/3 464/1/3
f 466/1/3 455/1/3 465/1/3
f 467/1/3 455/1/3 466/1/3
f 468/1/3 455/1/3 467/1/3
f 478/1/3 470/1/3 469/1/3
f 478/1/3 477/1/3 476/1/3
f 478/1/3 476/1/3 475/1/3
f 478/1/3 475/1/3 474/1/3
f 478/1/3 474/1/3 473/1/3
f 478/1/3 473/1/3 472/1/3
f 478/1/3 472/1/3 471/1/3
f 478/1/3 471/1/3 470/1/3
f 479/1/3 477/1/3 478/1/3
f 480/1/3 477/1/3 479/1/3
f 481/1/3 477/1/3 480/1/3
f 482/1/3 477/1/3 481/1/3
f 483/1/3 477/1/3 482/1/3
f 484/1/3 477/1/3 483/1/3
f 485/1/3 477/1/3 484/1/3
f 486/1/3 477/1/3 485/1/3
f 487/1/3 477/1/3 486/1/3
f 488/1/3 477/1/3 487/1/3
f 489/1/3 477/1/3 488/1/3
f 490/1/3 477/1/3 489/1/3
f 491/1/3 477/1/3 490/1/3
f 492/1/3 477/1/3 491/1/3
f 493/4/4 494/4/4 495/4/4
f 495/4/4 494/4/4 496/4/4
f 501/3/5 498/3/5 497/3/5
f 504/3/5 500/3/5 499/3/5
f 505/3/5 500/3/5 504/3/5
f 508/3/5 501/3/5 497/3/5
f 509/4/5 502/4/5 501/4/5
f 509/3/5 501/3/5 508/3/5
f 510/3/5 503/3/5 502/3/5
f 510/4/5 502/4/5 509/4/5
f 511/4/5 504/4/5 503/4/5
f 511/3/5 503/3/5 510/3/5
f 512/3/5 505/3/5 504/3/5
f 512/4/5 504/4/5 511/4/5
f 513/4/5 506/4/5 505/4/5
f 513/3/5 505/3/5 512/3/5
f 514/3/5 507/3/5 506/3/5
f 514/4/5 506/4/5 513/4/5
f 515/3/5 507/3/5 514/3/5
f 516/4/5 509/4/5 508/4/5
f 516/4/5 513/4/5 512/4/5
f 516/4/5 515/4/5 514/4/5
f 516/4/5 514/4/5 513/4/5
f 516/4/5 512/4/5 511/4/5
f 516/4/5 511/4/5 510/4/5
f 516/4/5 510/4/5 509/4/5
f 517/4/5 515/4/5 516/4/5
f 522/3/5 519/3/5 518/3/5
f 523/3/5 519/3/5 522/3/5
f 524/3/5 521/3/5 520/3/5
f 525/3/5 521/3/5 524/3/5
f 528/3/5 527/3/5 526/3/5
f 529/3/5 527/3/5 528/3/5
f 532/3/5 531/3/5 530/3/5
f 533/3/5 531/3/5 532/3/5
f 538/3/5 535/3/5 534/3/5
f 539/3/5 535/3/5 538/3/5
f 540/3/5 537/3/5 536/3/5
f 541/3/5 537/3/5 540/3/5
f 546/3/5 543/3/5 542/3/5
f 547/3/5 543/3/5 546/3/5
f 548/3/5 545/3/5 544/3/5
f 549/3/5 545/3/5 548/3/5
f 552/3/5 551/3/5 550/3/5
f 553/3/5 551/3/5 552/3/5
f 556/3/5 555/3/5 554/3/5
f 557/3/5 555/3/5 556/3/5
f 560/3/5 559/3/5 558/3/5
f 561/3/5 559/3/5 560/3/5
f 566/4/5 563/4/5 562/4/5
f 567/4/5 563/4/5 566/4/5
f 568/4/5 565/4/5 564/4/5
f 569/4/5 565/4/5 568/4/5
f 574/3/5 571/3/5 570/3/5
f 575/3/5 571/3/5 574/3/5
f 576/3/5 573/3/5 572/3/5
f 577/3/5 573/3/5 576/3/5
f 578/3/6 579/3/6 582/3/6
f 582/3/6 579/3/6 583/3/6
f 580/3/6 581/3/6 584/3/6
f 584/3/6 581/3/6 585/3/6
f 586/3/6 587/3/6 592/3/6
f 592/3/6 587/3/6 593/3/6
f 593/3/6 587/3/6 594/3/6
f 588/3/6 589/3/6 595/3/6
f 595/3/6 589/3/6 596/3/6
f 596/3/6 589/3/6 597/3/6
f 590/3/6 591/3/6 600/3/6
f 591/4/6 592/4/6 601/4/6
f 600/3/6 591/3/6 601/3/6
f 592/3/6 593/3/6 602/3/6
f 601/4/6 592/4/6 602/4/6
f 602/3/6 593/3/6 603/3/6
f 596/3/6 597/3/6 604/3/6
f 597/4/6 598/4/6 605/4/6
f 604/3/6 597/3/6 605/3/6
f 598/3/6 599/3/6 606/3/6
f 605/4/6 598/4/6 606/4/6
f 606/3/6 599/3/6 607/3/6
f 608/3/6 609/3/6 610/3/6
f 610/3/6 609/3/6 611/3/6
f 612/3/6 613/3/6 614/3/6
f 614/3/6 613/3/6 615/3/6
f 616/3/6 617/3/6 620/3/6
f 620/3/6 617/3/6 621/3/6
f 618/3/6 619/3/6 622/3/6
f 622/3/6 619/3/6 623/3/6
f 624/3/6 625/3/6 626/3/6
f 626/3/6 625/3/6 627/3/6
f 628/3/6 629/3/6 630/3/6
f 630/3/6 629/3/6 631/3/6
f 632/3/6 633/3/6 636/3/6
f 636/3/6 633/3/6 637/3/6
f 634/3/6 635/3/6 638/3/6
f 638/3/6 635/3/6 639/3/6
f 640/3/6 641/3/6 642/3/6
f 642/3/6 641/3/6 643/3/6
f 644/3/6 645/3/6 648/3/6
f 646/3/6 647/3/6 653/3/6
f 653/3/6 647/3/6 654/3/6
f 644/3/6 648/3/6 657/3/6
f 648/4/6 649/4/6 658/4/6
f 657/3/6 648/3/6 658/3/6
f 649/3/6 650/3/6 659/3/6
f 658/4/6 649/4/6 659/4/6
f 650/4/6 651/4/6 660/4/6
f 659/3/6 650/3/6 660/3/6
f 651/3/6 652/3/6 661/3/6
f 660/4/6 651/4/6 661/4/6
f 652/4/6 653/4/6 662/4/6
f 661/3/6 652/3/6 662/3/6
f 653/3/6 654/3/6 663/3/6
f 662/4/6 653/4/6 663/4/6
f 654/4/6 655/4/6 664/4/6
f 663/3/6 654/3/6 664/3/6
f 655/3/6 656/3/6 665/3/6
f 664/4/6 655/4/6 665/4/6
f 665/3/6 656/3/6 666/3/6
f 659/4/6 660/4/6 667/4/6
f 663/4/6 664/4/6 667/4/6
f 665/4/6 666/4/6 667/4/6
f 664/4/6 665/4/6 667/4/6
f 662/4/6 663/4/6 667/4/6
f 661/4/6 662/4/6 667/4/6
f 660/4/6 661/4/6 667/4/6
f 657/4/6 658/4/6 667/4/6
f 658/4/6 659/4/6 667/4/6
f 667/4/6 666/4/6 668/4/6
